<svg id="Layer_2_1_" xmlns="http://www.w3.org/2000/svg" width="240" height="234" viewBox="0 0 240 234">
  <g id="Surfaces">
    <g id="UI_UX_Surface">
      <g id="Outline_no_shadow">
        <path id="Path_58" data-name="Path 58" d="M42.5,0h155A42.464,42.464,0,0,1,240,42.5v149A42.464,42.464,0,0,1,197.5,234H42.5A42.464,42.464,0,0,1,0,191.5V42.5A42.464,42.464,0,0,1,42.5,0Z" fill="#470137"/>
      </g>
    </g>
  </g>
  <g id="Outlined_Mnemonics_Logos">
    <g id="Xd">
      <path id="Path_59" data-name="Path 59" d="M126.2,61.5,96.2,111l32,52.5a1.721,1.721,0,0,1,.2,1.2c-.1.4-.5.1-1.1.2H104.4c-1.6,0-2.7-.1-3.4-1.1-2.1-4.2-4.3-8.3-6.4-12.5-2.1-4.1-4.4-8.3-6.8-12.6s-4.8-8.6-7.2-13h-.2c-2.1,4.3-4.4,8.6-6.7,12.9s-4.6,8.6-6.8,12.8c-2.3,4.2-4.6,8.5-6.9,12.6-.4,1-1.2,1.1-2.3,1.1h-22c-.4,0-.7.2-.7-.3a1.389,1.389,0,0,1,.2-1.1l31.1-51L36,61.4c-.3-.4-.4-.8-.2-1a1.159,1.159,0,0,1,1-.4H59.5a5.9,5.9,0,0,1,1.4.2,2.836,2.836,0,0,1,1,.9c1.9,4.3,4.1,8.6,6.4,12.9,2.4,4.3,4.7,8.5,7.2,12.7,2.4,4.2,4.6,8.4,6.7,12.7h.2c2.1-4.4,4.3-8.7,6.5-12.9s4.5-8.4,6.8-12.6,4.5-8.5,6.7-12.6a1.7,1.7,0,0,1,.6-1,1.907,1.907,0,0,1,1.3-.2h21.1a.921.921,0,0,1,1.1.7c.1.1-.1.5-.3.7Z" fill="#ff61f6"/>
      <path id="Path_60" data-name="Path 60" d="M172.4,167a49.715,49.715,0,0,1-21.5-4.5,34.863,34.863,0,0,1-15.1-13.6c-3.7-6.1-5.5-13.7-5.5-22.8a41.071,41.071,0,0,1,5.5-21.1,41.527,41.527,0,0,1,15.9-15.5c7-3.9,15.4-5.8,25.3-5.8a17.858,17.858,0,0,1,2.1.1c.9.1,1.9.1,3.1.2V52.4c0-.7.3-1.1,1-1.1h20.3a.9.9,0,0,1,1,.7v95.4c0,1.8.1,3.8.2,6,.2,2.1.3,4.1.4,5.8a1.624,1.624,0,0,1-1,1.6,76.371,76.371,0,0,1-16.3,4.8A88.209,88.209,0,0,1,172.4,167Zm9.8-20V103a25.579,25.579,0,0,0-2.7-.5c-1.1-.1-2.2-.2-3.3-.2a24.652,24.652,0,0,0-11.3,2.6,22.418,22.418,0,0,0-8.5,7.4c-2.2,3.2-3.3,7.5-3.3,12.7a27.867,27.867,0,0,0,1.7,10.3,19.544,19.544,0,0,0,4.5,7.1,17.276,17.276,0,0,0,6.8,4,26.176,26.176,0,0,0,8.3,1.3c1.5,0,2.9-.1,4.2-.2A8.746,8.746,0,0,0,182.2,147Z" fill="#ff61f6"/>
    </g>
  </g>
</svg>
